# xmcd CD database file
#
# Track frame offsets:
#	150
#	18653
#	31343
#	46951
#	65447
#	80240
#	98473
#	124299
#	135413
#	152298
#	165449
#
# Disc length: 2347 seconds
#
# Revision: 0
# Processed by: cddbd v1.4PL0 Copyright (c) Steve Scherf et al.
# Submitted via: Feurio! 1.65 - http://www.feurio.com
#
DISCID=8109290b
DTITLE=Jimmy Spacek - Sweet Texas Soul
DYEAR=1997
DGENRE=blues
TTITLE0=Eagle
TTITLE1=Payin' The Price
TTITLE2=Lealous Hand
TTITLE3=Sweet Texas Soul
TTITLE4=Easy Come, Easy Go
TTITLE5=Messin' With The Kid
TTITLE6=Blues For The City
TTITLE7=Good Lookin' Lady
TTITLE8=Big Legged Woman
TTITLE9=Blues Man
TTITLE10=Three Good Reasons
EXTD=C 1997 Dixiefrog Records
EXTT0=
EXTT1=
EXTT2=
EXTT3=
EXTT4=
EXTT5=
EXTT6=
EXTT7=
EXTT8=
EXTT9=
EXTT10=
PLAYORDER=
